<svg width="73" height="73" viewBox="0 0 73 73" fill="none" xmlns="http://www.w3.org/2000/svg">
<path d="M63.5 48.4997V24.4997C63.4989 23.4475 63.2212 22.4141 62.6946 21.5032C62.1681 20.5923 61.4112 19.8358 60.5 19.3097L39.5 7.30971C38.5879 6.7831 37.5532 6.50586 36.5 6.50586C35.4468 6.50586 34.4121 6.7831 33.5 7.30971L12.5 19.3097C11.5888 19.8358 10.8319 20.5923 10.3054 21.5032C9.77883 22.4141 9.50108 23.4475 9.5 24.4997V48.4997C9.50108 49.5519 9.77883 50.5853 10.3054 51.4962C10.8319 52.4072 11.5888 53.1636 12.5 53.6897L33.5 65.6897C34.4121 66.2163 35.4468 66.4936 36.5 66.4936C37.5532 66.4936 38.5879 66.2163 39.5 65.6897L60.5 53.6897C61.4112 53.1636 62.1681 52.4072 62.6946 51.4962C63.2212 50.5853 63.4989 49.5519 63.5 48.4997Z" stroke="#F9F9F9" stroke-width="2" stroke-linecap="round" stroke-linejoin="round"/>
<path d="M10.3101 21.3799L36.5001 36.5299L62.6901 21.3799" stroke="#F9F9F9" stroke-width="2" stroke-linecap="round" stroke-linejoin="round"/>
<path d="M36.5 66.74V36.5" stroke="#F9F9F9" stroke-width="2" stroke-linecap="round" stroke-linejoin="round"/>
</svg>
