<svg width="72" height="73" viewBox="0 0 72 73" fill="none" xmlns="http://www.w3.org/2000/svg">
<path d="M54 9.5C51.6131 9.5 49.3239 10.4482 47.636 12.136C45.9482 13.8239 45 16.1131 45 18.5V54.5C45 56.8869 45.9482 59.1761 47.636 60.864C49.3239 62.5518 51.6131 63.5 54 63.5C56.3869 63.5 58.6761 62.5518 60.364 60.864C62.0518 59.1761 63 56.8869 63 54.5C63 52.1131 62.0518 49.8239 60.364 48.136C58.6761 46.4482 56.3869 45.5 54 45.5H18C15.6131 45.5 13.3239 46.4482 11.636 48.136C9.94821 49.8239 9 52.1131 9 54.5C9 56.8869 9.94821 59.1761 11.636 60.864C13.3239 62.5518 15.6131 63.5 18 63.5C20.3869 63.5 22.6761 62.5518 24.364 60.864C26.0518 59.1761 27 56.8869 27 54.5V18.5C27 16.1131 26.0518 13.8239 24.364 12.136C22.6761 10.4482 20.3869 9.5 18 9.5C15.6131 9.5 13.3239 10.4482 11.636 12.136C9.94821 13.8239 9 16.1131 9 18.5C9 20.8869 9.94821 23.1761 11.636 24.864C13.3239 26.5518 15.6131 27.5 18 27.5H54C56.3869 27.5 58.6761 26.5518 60.364 24.864C62.0518 23.1761 63 20.8869 63 18.5C63 16.1131 62.0518 13.8239 60.364 12.136C58.6761 10.4482 56.3869 9.5 54 9.5Z" stroke="#F9F9F9" stroke-width="2" stroke-linecap="round" stroke-linejoin="round"/>
</svg>
