<svg width="611" height="120" viewBox="0 0 611 120" fill="none" xmlns="http://www.w3.org/2000/svg">
<path d="M0.199008 119.953L0 120C61.1343 120 107.463 70.7447 121.791 35L160 85L170 75C168.408 72.4468 148.537 44.9362 121.791 0C76.5573 101.814 21.8299 114.814 0.199008 119.953Z" fill="#F9F9F9"/>
<path d="M274.801 0.0472717L275 0C213.866 0 166.828 49.2553 152.5 85L115 35L105 45C106.592 47.5532 126.463 75.0638 153.209 120C198.443 18.1861 253.17 5.18565 274.801 0.0472717Z" fill="#F9F9F9"/>
<path d="M330.24 57C327.024 51.288 323.544 45.648 319.8 40.08C316.056 34.512 312.072 29.256 307.848 24.312V57H296.76V7.104H305.904C307.488 8.688 309.24 10.632 311.16 12.936C313.08 15.24 315.024 17.712 316.992 20.352C319.008 22.944 321 25.656 322.968 28.488C324.936 31.272 326.784 33.96 328.512 36.552V7.104H339.672V57H330.24ZM351.182 57V7.104H384.878V16.536H362.414V26.328H382.358V35.544H362.414V47.568H386.534V57H351.182ZM424.908 57C423.516 54.216 421.98 51.408 420.3 48.576C418.668 45.696 416.772 42.768 414.612 39.792C413.94 40.656 413.076 41.856 412.02 43.392C411.012 44.928 409.98 46.56 408.924 48.288C407.916 50.016 406.956 51.672 406.044 53.256C405.132 54.84 404.46 56.088 404.028 57H391.212C393.324 53.112 395.772 49.032 398.556 44.76C401.388 40.488 404.532 35.952 407.988 31.152L391.932 7.104H405.54L415.26 22.656L424.764 7.104H437.58L421.74 31.296C425.772 36.528 429.156 41.376 431.892 45.84C434.628 50.256 436.788 53.976 438.372 57H424.908ZM483.745 7.104V16.68H468.697V57H457.465V16.68H442.417V7.104H483.745ZM311.592 117C309.624 112.824 307.68 108.48 305.76 103.968C303.84 99.456 302.016 94.992 300.288 90.576C298.56 86.16 296.952 81.936 295.464 77.904C294.024 73.872 292.776 70.272 291.72 67.104H304.104C305.064 69.984 306.096 73.104 307.2 76.464C308.352 79.776 309.504 83.088 310.656 86.4C311.856 89.712 313.008 92.88 314.112 95.904C315.216 98.928 316.248 101.544 317.208 103.752C318.12 101.544 319.128 98.928 320.232 95.904C321.384 92.88 322.536 89.712 323.688 86.4C324.888 83.088 326.04 79.776 327.144 76.464C328.296 73.104 329.352 69.984 330.312 67.104H342.264C341.16 70.272 339.888 73.872 338.448 77.904C337.008 81.936 335.424 86.16 333.696 90.576C331.968 94.992 330.144 99.456 328.224 103.968C326.304 108.48 324.36 112.824 322.392 117H311.592ZM348.721 117V67.104H382.417V76.536H359.953V86.328H379.897V95.544H359.953V107.568H384.073V117H348.721ZM407.001 66.528C414.489 66.528 420.225 67.872 424.209 70.56C428.193 73.2 430.185 77.328 430.185 82.944C430.185 86.448 429.369 89.304 427.737 91.512C426.153 93.672 423.849 95.376 420.825 96.624C421.833 97.872 422.889 99.312 423.993 100.944C425.097 102.528 426.177 104.208 427.233 105.984C428.337 107.712 429.393 109.536 430.401 111.456C431.409 113.328 432.345 115.176 433.209 117H420.609C419.697 115.368 418.761 113.712 417.801 112.032C416.889 110.352 415.929 108.72 414.921 107.136C413.961 105.552 413.001 104.064 412.041 102.672C411.081 101.232 410.121 99.936 409.161 98.784H403.617V117H392.385V67.824C394.833 67.344 397.353 67.008 399.945 66.816C402.585 66.624 404.937 66.528 407.001 66.528ZM407.649 76.104C406.833 76.104 406.089 76.128 405.417 76.176C404.793 76.224 404.193 76.272 403.617 76.32V89.856H406.785C411.009 89.856 414.033 89.328 415.857 88.272C417.681 87.216 418.593 85.416 418.593 82.872C418.593 80.424 417.657 78.696 415.785 77.688C413.961 76.632 411.249 76.104 407.649 76.104ZM454.016 108.432C455.6 108.432 456.896 108.312 457.904 108.072C458.96 107.784 459.8 107.424 460.424 106.992C461.048 106.512 461.48 105.96 461.72 105.336C461.96 104.712 462.08 104.016 462.08 103.248C462.08 101.616 461.312 100.272 459.776 99.216C458.24 98.112 455.6 96.936 451.856 95.688C450.224 95.112 448.592 94.464 446.96 93.744C445.328 92.976 443.864 92.04 442.568 90.936C441.272 89.784 440.216 88.416 439.4 86.832C438.584 85.2 438.176 83.232 438.176 80.928C438.176 78.624 438.608 76.56 439.472 74.736C440.336 72.864 441.56 71.28 443.144 69.984C444.728 68.688 446.648 67.704 448.904 67.032C451.16 66.312 453.704 65.952 456.536 65.952C459.896 65.952 462.8 66.312 465.248 67.032C467.696 67.752 469.712 68.544 471.296 69.408L468.056 78.264C466.664 77.544 465.104 76.92 463.376 76.392C461.696 75.816 459.656 75.528 457.256 75.528C454.568 75.528 452.624 75.912 451.424 76.68C450.272 77.4 449.696 78.528 449.696 80.064C449.696 80.976 449.912 81.744 450.344 82.368C450.776 82.992 451.376 83.568 452.144 84.096C452.96 84.576 453.872 85.032 454.88 85.464C455.936 85.848 457.088 86.256 458.336 86.688C460.928 87.648 463.184 88.608 465.104 89.568C467.024 90.48 468.608 91.56 469.856 92.808C471.152 94.056 472.112 95.52 472.736 97.2C473.36 98.88 473.672 100.92 473.672 103.32C473.672 107.976 472.04 111.6 468.776 114.192C465.512 116.736 460.592 118.008 454.016 118.008C451.808 118.008 449.816 117.864 448.04 117.576C446.264 117.336 444.68 117.024 443.288 116.64C441.944 116.256 440.768 115.848 439.76 115.416C438.8 114.984 437.984 114.576 437.312 114.192L440.48 105.264C441.968 106.08 443.792 106.824 445.952 107.496C448.16 108.12 450.848 108.432 454.016 108.432ZM482.315 67.104H493.547V117H482.315V67.104ZM514.528 92.016C514.528 94.464 514.816 96.672 515.392 98.64C516.016 100.608 516.88 102.312 517.984 103.752C519.136 105.144 520.528 106.224 522.16 106.992C523.792 107.76 525.664 108.144 527.776 108.144C529.84 108.144 531.688 107.76 533.32 106.992C535 106.224 536.392 105.144 537.496 103.752C538.648 102.312 539.512 100.608 540.088 98.64C540.712 96.672 541.024 94.464 541.024 92.016C541.024 89.568 540.712 87.36 540.088 85.392C539.512 83.376 538.648 81.672 537.496 80.28C536.392 78.84 535 77.736 533.32 76.968C531.688 76.2 529.84 75.816 527.776 75.816C525.664 75.816 523.792 76.224 522.16 77.04C520.528 77.808 519.136 78.912 517.984 80.352C516.88 81.744 516.016 83.448 515.392 85.464C514.816 87.432 514.528 89.616 514.528 92.016ZM552.616 92.016C552.616 96.288 551.968 100.056 550.672 103.32C549.424 106.536 547.696 109.248 545.488 111.456C543.28 113.616 540.64 115.248 537.568 116.352C534.544 117.456 531.28 118.008 527.776 118.008C524.368 118.008 521.152 117.456 518.128 116.352C515.104 115.248 512.464 113.616 510.208 111.456C507.952 109.248 506.176 106.536 504.88 103.32C503.584 100.056 502.936 96.288 502.936 92.016C502.936 87.744 503.608 84 504.952 80.784C506.296 77.52 508.096 74.784 510.352 72.576C512.656 70.368 515.296 68.712 518.272 67.608C521.296 66.504 524.464 65.952 527.776 65.952C531.184 65.952 534.4 66.504 537.424 67.608C540.448 68.712 543.088 70.368 545.344 72.576C547.6 74.784 549.376 77.52 550.672 80.784C551.968 84 552.616 87.744 552.616 92.016ZM595.459 117C592.243 111.288 588.763 105.648 585.019 100.08C581.275 94.512 577.291 89.256 573.067 84.312V117H561.979V67.104H571.123C572.707 68.688 574.459 70.632 576.379 72.936C578.299 75.24 580.243 77.712 582.211 80.352C584.227 82.944 586.219 85.656 588.187 88.488C590.155 91.272 592.003 93.96 593.731 96.552V67.104H604.891V117H595.459Z" fill="#F9F9F9"/>
</svg>
